<svg width="16" height="16" viewBox="0 0 16 16" fill="none" xmlns="http://www.w3.org/2000/svg">
<path fill-rule="evenodd" clip-rule="evenodd" d="M12 8C12 8.13261 11.9473 8.25978 11.8536 8.35355C11.7598 8.44732 11.6326 8.5 11.5 8.5H5.707L7.854 10.646C7.90049 10.6925 7.93737 10.7477 7.96252 10.8084C7.98768 10.8692 8.00063 10.9343 8.00063 11C8.00063 11.0657 7.98768 11.1308 7.96252 11.1916C7.93737 11.2523 7.90049 11.3075 7.854 11.354C7.80751 11.4005 7.75232 11.4374 7.69158 11.4625C7.63085 11.4877 7.56575 11.5006 7.5 11.5006C7.43426 11.5006 7.36916 11.4877 7.30842 11.4625C7.24768 11.4374 7.19249 11.4005 7.146 11.354L4.146 8.354C4.09944 8.30755 4.06249 8.25238 4.03729 8.19163C4.01208 8.13089 3.99911 8.06577 3.99911 8C3.99911 7.93423 4.01208 7.86911 4.03729 7.80836C4.06249 7.74762 4.09944 7.69244 4.146 7.646L7.146 4.646C7.23989 4.55211 7.36723 4.49937 7.5 4.49937C7.63278 4.49937 7.76011 4.55211 7.854 4.646C7.94789 4.73989 8.00063 4.86722 8.00063 5C8.00063 5.13277 7.94789 5.26011 7.854 5.354L5.707 7.5H11.5C11.6326 7.5 11.7598 7.55268 11.8536 7.64645C11.9473 7.74021 12 7.86739 12 8Z" fill="#CCCCCC"/>
</svg>
