<svg width="145" height="138" viewBox="0 0 145 138" fill="none" xmlns="http://www.w3.org/2000/svg">
<path fill-rule="evenodd" clip-rule="evenodd" d="M7.848 1.97801C5.839 3.03901 3.252 5.43501 2.098 7.30201C0.0309997 10.647 0 11.54 0 68.68V126.664L2.25 129.97C3.487 131.788 5.77 134.217 7.323 135.368C10.046 137.386 11.256 137.46 41.323 137.46C70.879 137.46 72.68 137.354 75.965 135.425C82.581 131.538 83.458 128.614 83.833 109.21L84.165 91.96H89.51C94.093 91.96 95.15 92.336 96.927 94.595C98.74 96.899 99.001 98.623 99.01 108.345C99.018 117.944 99.345 120.158 101.402 124.577C108.057 138.87 127.393 141.883 138.136 130.302C144.653 123.275 144.5 124.489 144.5 79.96V39.46L142.011 35.112C140.264 32.061 134.201 26.429 121.689 16.234C111.881 8.24201 103.515 2.09901 103.099 2.58201C99.324 6.96001 95.006 12.836 95.031 13.563C95.048 14.056 96.96 15.926 99.281 17.719C101.601 19.511 104.84 22.084 106.477 23.437L109.454 25.897L106.283 29.178C97.132 38.652 96.722 51.848 105.301 60.798C110.438 66.157 115.58 68.381 122.75 68.346L129 68.314V93.137C129 116.627 128.893 118.067 127 119.96C124.022 122.938 118.67 122.627 116.073 119.325C114.256 117.016 114 115.307 114 105.504C114 95.283 113.763 93.851 111.25 88.896C107.189 80.887 102.104 77.709 92.233 77.009L84.5 76.46L84 43.96C83.478 10.059 83.257 8.35501 78.856 4.27701C74.505 0.244009 71.984 -0.04199 41.185 0.00400998C13.84 0.04501 11.212 0.200009 7.848 1.97801ZM68 30.46V45.96H41.5H15V30.46V14.96H41.5H68V30.46ZM126.611 40.302C128.524 41.947 129.333 43.599 129.333 45.857C129.333 52.887 120.95 55.928 116.342 50.571C113.236 46.96 113.389 44.417 116.923 40.883C120.457 37.349 123 37.196 126.611 40.302ZM68 91.46V121.96H41.5H15V91.46V60.96H41.5H68V91.46Z" fill="black"/>
</svg>
