<svg width="32" height="32" viewBox="0 0 32 32" fill="none" xmlns="http://www.w3.org/2000/svg">
<path fill-rule="evenodd" clip-rule="evenodd" d="M12.515 0.306294C9.14309 0.882704 5.92253 2.45892 3.62927 4.65515C-0.430526 8.5433 -1.11995 13.893 1.74104 19.3031C3.5909 22.8005 8.54198 27.6988 13.3375 30.7751C15.3308 32.0539 15.9056 32.2161 16.9215 31.7867C18.1729 31.2572 22.2679 28.294 24.2368 26.4927C31.2199 20.1048 33.5082 14.0177 31.0359 8.4081C30.2266 6.57219 28.9716 5.08295 26.922 3.52664C22.9865 0.538744 17.8604 -0.607159 12.515 0.306294ZM19.6537 3.62956C22.9983 4.42165 26.2872 7.03625 27.3659 9.76068C28.0183 11.408 28.1292 13.7563 27.6358 15.4707C27.1068 17.3089 24.9302 20.6668 22.9421 22.7117C20.9222 24.7893 16.5475 28.2565 15.9461 28.2565C15.4383 28.2565 10.7243 24.5245 9.12285 22.8546C3.8285 17.3334 2.59001 12.326 5.46992 8.08238C6.90397 5.96916 10.5832 3.84252 13.7128 3.31809C15.1813 3.07201 17.9022 3.21475 19.6537 3.62956ZM13.3435 6.75999C10.0289 7.703 8.01788 10.0168 8.04994 12.8507C8.09016 16.4064 11.4879 19.1203 15.903 19.1239C18.3937 19.1258 20.099 18.5152 21.8361 16.9998C26.5098 12.9215 22.858 6.42085 15.9185 6.46592C15.0512 6.47158 13.8923 6.60384 13.3435 6.75999ZM17.894 9.9904C19.2408 10.562 20.0404 11.7655 19.9087 13.0234C19.7278 14.7545 18.0583 15.9679 15.8933 15.9417C13.2873 15.9102 11.4705 14.0163 12.1355 12.0238C12.8215 9.96797 15.5613 9.00065 17.894 9.9904Z" fill="black"/>
</svg>
