<svg width="33" height="33" viewBox="0 0 33 33" fill="none" xmlns="http://www.w3.org/2000/svg">
<path fill-rule="evenodd" clip-rule="evenodd" d="M2.86855 0.451967C2.40117 0.663932 1.68575 1.22617 1.27871 1.70137C0.00499062 3.18742 -0.25478 4.89423 0.449116 7.15261C0.981018 8.85963 1.93631 10.294 3.45681 11.6683C4.93059 13.0004 4.93562 12.9995 6.77119 11.1645C7.51992 10.416 8.22822 9.41246 8.74357 8.37042C9.45773 6.92558 9.54907 6.56401 9.56269 5.12712C9.57484 3.84466 9.48287 3.33118 9.11877 2.64695C8.60007 1.67186 7.60393 0.757464 6.60548 0.339393C5.65564 -0.0579628 3.87453 -0.00439611 2.86855 0.451967ZM5.91562 2.67164C6.78753 3.12193 7.17489 3.78691 7.17489 4.83293C7.17489 5.59541 7.05568 5.86785 6.46261 6.46022C5.46626 7.45539 4.34296 7.46146 3.26763 6.47717C2.63853 5.90133 2.50885 5.63998 2.50885 4.94738C2.50885 3.88923 2.83545 3.28096 3.67929 2.76705C4.4806 2.27909 5.10384 2.25252 5.91562 2.67164ZM9.65444 11.2136L8.67737 12.7166L14.1238 12.8213L19.57 12.9259L20.181 13.6093C21.1996 14.7486 20.9549 16.5383 19.6814 17.266C19.3481 17.4565 17.3097 17.5582 12.3075 17.6339C4.42131 17.7532 4.36642 17.7643 2.36639 19.6328C0.796246 21.0996 0.17887 22.5365 0.166719 24.752C0.157921 26.355 0.226215 26.6749 0.846524 27.9342C1.92436 30.1218 3.76644 31.4604 6.26066 31.8684C7.55491 32.0802 22.4679 32.1576 22.4679 31.9525C22.4679 31.887 22.1983 31.4397 21.8689 30.9586C21.5394 30.4776 21.1127 29.7778 20.9208 29.4039L20.5717 28.7239H13.4475C5.55718 28.7239 5.45223 28.7086 4.2998 27.3977C2.62281 25.4898 3.05437 22.7206 5.24085 21.3628C6.00822 20.8862 6.15319 20.8753 13.0407 20.7726C19.7428 20.6728 20.097 20.6474 20.9109 20.2122C21.955 19.6542 23.181 18.3309 23.6345 17.2723C23.8208 16.8383 23.976 15.9112 23.9798 15.2123C23.9917 13.0085 22.885 11.1825 20.9553 10.222C19.8861 9.68971 19.8104 9.6828 15.2517 9.69661L10.6315 9.71084L9.65444 11.2136ZM26.4482 19.3056C24.8152 19.61 23.1049 21.1051 22.6924 22.5886C21.9481 25.2663 23.5082 29.0748 26.2322 31.2298C27.2885 32.0653 27.5433 31.9891 29.1685 30.3505C31.143 28.3598 32.3729 25.3015 31.9992 23.3115C31.4949 20.6267 29.0043 18.8293 26.4482 19.3056ZM28.8784 22.321C29.4756 22.9175 29.5906 23.1831 29.5906 23.9667C29.5906 26.7572 25.9903 27.3041 24.9895 24.6658C24.4706 23.2984 25.7603 21.6095 27.3233 21.6095C28.0025 21.6095 28.3043 21.7476 28.8784 22.321Z" fill="black"/>
</svg>
