<svg width="32" height="32" viewBox="0 0 32 32" fill="none" xmlns="http://www.w3.org/2000/svg">
<path fill-rule="evenodd" clip-rule="evenodd" d="M14.13 0.113745C12.4463 0.358069 10.3057 1.27203 9.30384 2.17404C8.00876 3.33987 7.7106 4.73157 7.7106 9.61218V14.0113L5.30876 15.3363C1.2996 17.5476 -0.21655 19.7547 0.0245836 23.0275C0.145327 24.6646 0.34457 25.1988 1.27637 26.3843C4.00664 29.8581 9.63439 32 16.0313 32C23.5656 32 30.1019 28.8368 31.6913 24.4207C32.2263 22.9346 31.8828 20.4161 30.9489 18.9804C29.9734 17.4805 28.0831 15.9961 25.7777 14.9196C24.3999 14.2761 23.9496 13.9284 23.9296 13.4922L23.9035 12.9155H27.9518H32V11.2377V9.55996H27.9518H23.9035V7.98705V6.41415H27.9518H32V4.84125V3.26835H27.8472H23.6941L22.4789 2.17404C20.6635 0.539687 17.1564 -0.325828 14.13 0.113745ZM17.8935 3.82097C18.5922 4.34988 18.6232 4.62293 18.6232 10.2139V16.0541L20.3953 16.5891C22.6686 17.2756 24.5903 18.4261 25.6584 19.7402C26.3346 20.5721 26.5032 21.1153 26.5032 22.4577C26.5032 24.5627 25.651 25.7092 23.0217 27.1408C14.7954 31.6202 2.03814 26.4284 5.95331 20.1944C6.90729 18.6756 8.63289 17.5323 11.204 16.7158L13.3429 16.0367V10.1379C13.3429 4.37022 13.3598 4.22845 14.1082 3.75365C15.1903 3.06765 16.9399 3.09869 17.8935 3.82097ZM8.29741 21.0247C7.74791 21.3519 8.07846 23.7081 8.79834 24.5937C11.4311 27.8341 19.6715 28.043 22.7172 24.9467C23.693 23.9549 24.1633 22.3692 23.7638 21.4205L23.5381 20.8848H16.0352C11.9084 20.8848 8.42625 20.9478 8.29741 21.0247Z" fill="black"/>
</svg>
